<?xml version="1.0" encoding="utf-8"?>
<!-- Generator: Adobe Illustrator 19.1.0, SVG Export Plug-In . SVG Version: 6.00 Build 0)  -->
<svg version="1.1" id="Capa_1" xmlns="http://www.w3.org/2000/svg" xmlns:xlink="http://www.w3.org/1999/xlink" x="0px" y="0px"
	 viewBox="0 0 301.1 119.3" style="enable-background:new 0 0 301.1 119.3;" xml:space="preserve">
<style type="text/css">
	.st0{fill-rule:evenodd;clip-rule:evenodd;}
	.st1{fill:#E73137;}
</style>
<g>
	<path d="M138,61l-0.5-10.4c-1.2,0.8-4.3,2.5-8.6,2.5c-7.5,0-11.8-5.9-11.8-13.5c0-8.7,3.6-13.7,11.2-13.7c3.8,0,7.3,1.7,8.7,2.6
		l0.6-9.8c-1.1-0.4-5-2-10.8-2c-14.6,0-22.2,9.6-22.2,22.8c0,15.7,9.3,23.4,22.2,23.4C130.4,62.7,134.3,62.1,138,61L138,61z"/>
	<polygon points="172.5,62 172.5,53.1 156.1,53.1 156.1,43.5 170.9,43.5 170.9,34.7 156.1,34.7 156.1,26.2 171.7,26.2 171.7,17.3 
		144.3,17.3 144.3,62 172.5,62 	"/>
	<polygon points="205.7,62 205.7,52.9 191,52.9 191,17.3 179,17.3 179,62 205.7,62 	"/>
	<path d="M240,48c0-6.6-3.5-9.5-7.5-11.3l-5.4-2.4c-4-1.8-5.1-2.8-5.1-5.1c0-2.7,2.2-4.2,5.8-4.2c3.5,0,7.1,1.2,9.2,2.2l0.5-8.8
		c-3.6-1.5-7.9-1.8-11.2-1.8c-9.5,0-16.2,4.8-16.2,13.2c0,6.3,2.2,10.3,9.6,13.2l2.6,1c3.5,1.3,5.4,2.2,5.4,5.1
		c0,2.8-1.6,4.8-6.1,4.8c-4.3,0-8.6-1.9-10.1-2.7l-0.7,9.8c2.2,0.6,6.5,1.7,11.9,1.7C232.9,62.7,240,57.7,240,48L240,48z"/>
	<path class="st0" d="M283.7,62l-14.2-44.6h-13.2L241.4,62h11.5l2.9-9.5h13.1l2.4,9.5H283.7L283.7,62z M266.7,43.9h-8.8l4.8-17.5
		h0.1L266.7,43.9L266.7,43.9z"/>
	<path d="M65.9,27.3l0-21.9c0,0-0.4-4.1,3-5.2c0,0,2.3-0.6,2.2,3.1L70.6,28c0,0-0.3,2.2,2.2,5.2c0,0,10,11.9,11.2,13.9
		c0.6,0.9,2.7,4.2,3.1,5.2c1.3,3.5,1.6,6.1,0.2,9.6c-0.3,0.6-1.1,2.5-1.4,3.1c-2.2,3.6-4.6,6-7.2,8.2c-0.6,0.4-1.3,0.9-2.2,0.8
		c0,0-2-0.4-1.9-0.6c3-3.9,5.2-7.8,5.2-7.8s3.3-5.4,0.6-11.7c0,0-1-3.5-8-12.6l-3.7-4.4C68.7,36.7,65.6,33.8,65.9,27.3L65.9,27.3z"
		/>
	<path d="M33.9,1.7c0,0,0.4-1.9,1.7-1.6c0,0,1.9,0.7,2.2,2.7L38,16.5c0,0,0.3,3.8-2.5,10.7c0,0-2.7,5.1-3.3,6.3
		c-0.6,1.2-2.4,8.1,3.8,15.5c6.2,7.4,14.6,13,14.6,13s3,2.3,9.3,5.6c0,0,6.9,2.9,7.2,7.1c0,0-1.1,1-6.2-0.4
		c-3.6-1-12.2-5.4-12.2-5.4s-6.9-3.7-13.8-11.5c-6.5-7.2-7.4-13.1-7.4-13.1s-2.5-7,2.3-14c3.5-5.1,4-13.7,4-13.7L33.9,1.7L33.9,1.7z
		"/>
	<path class="st1" d="M35.2,31.2c-0.9,0-2.4,1-3,2.2c-0.6,1.2-2.8,7.6,3.5,15.7c6.5,8.3,14.8,13.5,14.8,13.5s3,1.8,9.4,5.1
		c0,0,6.6,2.9,7,7.1c0,0,0.4,0.9,1.1,9.5c0.4,5.8-0.3,29.4-0.3,29.4s-0.2,3.3-0.3,4.4c-0.1,1.1,0.5,1.3,1.7,1
		c1.3-0.4,4.6-2.4,4.8-5.5c0.2-3.2-0.8-19.3-1-27.6c-0.2-8.3-1.1-14.4-5-17.9c-3.1-2.4-6.3-2.9-9.6-4.8c-2-1.2-4.7-2.7-6.5-4.2
		c-1.8-1.4-3.7-2.8-5.4-4.3c-2.3-2-4.3-3.8-6.4-6.4c-2.9-3.6-5.2-6.9-5.3-10.5c-0.1-3.4,1.3-4.6,1.3-4.6S36,31.3,35.2,31.2
		L35.2,31.2z"/>
	<path class="st1" d="M73.5,68.6c-0.8,0.8-0.5,2.2,0.2,3.4c0,0,0.7,1.4,0.8,1.1c3-3.9,5.2-7.8,5.2-7.8s3.8-4.6,0.9-11.6
		c-0.7-3-6-10.3-8-12.6c-1.3-1.4-2.5-2.9-3.8-4.2c-1.5-1.2-3.5-2.4-5.2-2.7c-0.6-0.1-2-0.5-2.4-0.2c-0.2,0.1-0.7,0.8-0.5,1
		c3,1.6,3,1.7,4.1,2.5c3.3,2.2,5.8,5.4,7.3,7.4c2.6,3.7,5.6,8.5,5.6,14.6c0,0,0.2,2.5-1.7,5.6C76.2,65,74.3,67.8,73.5,68.6
		L73.5,68.6z"/>
	<path d="M28.4,26.8c0,0-0.4-0.8-2,0c0,0-3.6,1.1-11.1,14.2L2.9,61.6c0,0-7.7,12.2,1.9,24c9.3,11.5,14.2,14.9,21.7,19.3
		c5,2.9,8.4,2.7,10,2.7c1.5,0,6.2-1.7,10.2-4.5c4.1-2.8,13.9-10.9,14.8-12.2c0.5-0.7-1.6-1.3-2.4-1.1c-0.8,0.2-0.6,0.4-3.2,2.5
		c-2.5,2.1-8.1,6.2-11.3,7.8c-4.9,2.6-8.4,1.2-11.6,0c-3.2-1.2-9.5-3.9-18.9-12.2c-9.4-8.3-9.5-12-9.9-13.6C4,72.8,3.5,67.9,5.9,62
		c2.3-4.4,4.8-7.9,7.1-12.3c1.6-3,6.9-11.3,8.5-13.8c0.9-1.4,2.1-3.5,3.2-4.9c1.5-1.9,2-2.6,3.3-3.2C28.4,27.7,28.4,26.8,28.4,26.8
		L28.4,26.8z"/>
	<path d="M170.6,105.6v-18h-10.2v3.9h5.9v11.2c-1.2,0.6-3,1-4.4,1c-7.7,0-11.4-6-11.4-15.2c0-8.6,5.3-13.2,11.1-13.2
		c2.6,0,5.6,0.8,8.3,2.2v-4.5c-2.4-1.2-5.3-1.6-8.3-1.6c-9.2,0-15.7,6.9-15.7,18c0,9.6,4.7,18.1,15.9,18.1
		C165,107.4,168.5,106.4,170.6,105.6L170.6,105.6z"/>
	<path class="st0" d="M198.4,107.1l-5-14.2c-0.7-2-1.7-3-3.9-3.4v-0.1c5.2-1.1,7-4.7,7-8.5c0-2.6-0.8-5-2.6-6.7
		c-1.6-1.5-3.7-2.4-7.5-2.4h-9.1v35.4h4.5v-16h2c3.3,0,4.6,1.1,5.6,4.1l4.1,12H198.4L198.4,107.1z M191.9,81.2
		c0,3.1-1.8,6.2-6.6,6.2h-3.4V75.3h3.5C189.3,75.3,191.9,77.2,191.9,81.2L191.9,81.2z"/>
	<path class="st0" d="M227.9,89c0-10.9-5-17.7-12.9-17.7c-8.4,0-13.3,6.2-13.3,18.4c0,10.9,5,17.7,12.9,17.7
		C223,107.4,227.9,101.3,227.9,89L227.9,89z M223.3,89c0,10.9-4,14.8-8.6,14.8c-6,0-8.2-6.9-8.2-14c0-10.9,4-14.8,8.6-14.8
		C221,75,223.3,81.9,223.3,89L223.3,89z"/>
	<path d="M255.8,94.1V71.7h-4.5v23c0,5.5-2.4,9.1-6.6,9.1c-4.2,0-6.6-3.5-6.6-9.1v-23h-4.5v22.4c0,3.5,0.2,5.4,1.4,7.9
		c1.5,2.9,4.6,5.5,9.7,5.5s8.2-2.5,9.7-5.5C255.6,99.5,255.8,97.6,255.8,94.1L255.8,94.1z"/>
	<path class="st0" d="M281.9,81.7c0-3.1-1-5.6-2.8-7.3c-1.9-1.8-4.1-2.7-7.7-2.7H263v35.4h4.5V92.3h3
		C277.9,92.3,281.9,88.6,281.9,81.7L281.9,81.7z M277.3,82.1c0,4-2,6.5-7.4,6.5h-2.4V75.3h2.5C274.5,75.3,277.3,77.3,277.3,82.1
		L277.3,82.1z"/>
	<polygon points="291.8,9 291.8,7.9 286.6,7.9 286.6,9 288.4,9 288.4,15.1 290,15.1 290,9 291.8,9 	"/>
	<polygon points="301.1,15.1 301.1,7.9 298.8,7.9 297.2,13 297.1,13 295.6,7.9 293.2,7.9 293.2,15.1 294.7,15.1 294.7,9.3 
		294.7,9.3 296.6,15.1 297.6,15.1 299.6,9.3 299.6,9.3 299.6,15.1 301.1,15.1 	"/>
</g>
</svg>
